<?xml version="1.0" encoding="UTF-8"?>
<!DOCTYPE svg PUBLIC "-//W3C//DTD SVG 1.1//EN" "http://www.w3.org/Graphics/SVG/1.1/DTD/svg11.dtd">
<svg xmlns="http://www.w3.org/2000/svg" version="1.1" width="200px" height="200px" style="shape-rendering:geometricPrecision; text-rendering:geometricPrecision; image-rendering:optimizeQuality; fill-rule:evenodd; clip-rule:evenodd" xmlns:xlink="http://www.w3.org/1999/xlink">
<g><path style="opacity:0.998" fill="#56c025" d="M 97.5,27.5 C 99.5,27.5 101.5,27.5 103.5,27.5C 108.142,35.5028 110.975,44.1695 112,53.5C 112.842,68.8883 112.342,84.2216 110.5,99.5C 106.167,99.5 101.833,99.5 97.5,99.5C 97.5,75.5 97.5,51.5 97.5,27.5 Z"/></g>
<g><path style="opacity:0.996" fill="#49a31c" d="M 103.5,27.5 C 112.43,29.424 119.097,34.424 123.5,42.5C 126.292,47.8761 128.292,53.5428 129.5,59.5C 130.725,67.8089 130.725,76.1422 129.5,84.5C 128.829,89.845 127.163,94.845 124.5,99.5C 115.918,100.47 107.251,100.803 98.5,100.5C 98.1667,100.5 97.8333,100.5 97.5,100.5C 97.5,100.167 97.5,99.8333 97.5,99.5C 101.833,99.5 106.167,99.5 110.5,99.5C 112.342,84.2216 112.842,68.8883 112,53.5C 110.975,44.1695 108.142,35.5028 103.5,27.5 Z"/></g>
<g><path style="opacity:0.99" fill="#8fe169" d="M 91.5,27.5 C 87.2863,36.0078 84.453,45.0078 83,54.5C 82.3333,65.5 82.3333,76.5 83,87.5C 83.7444,91.7271 84.5777,95.8938 85.5,100C 89.4862,100.499 93.4862,100.666 97.5,100.5C 97.5,100.833 97.5,101.167 97.5,101.5C 88.4465,101.778 79.4465,101.444 70.5,100.5C 69.7729,98.0462 68.7729,95.7128 67.5,93.5C 65.0885,84.3404 64.0885,75.0071 64.5,65.5C 64.8692,60.6909 65.8692,56.0243 67.5,51.5C 71.8371,39.8296 79.8371,31.8296 91.5,27.5 Z"/></g>
<g><path style="opacity:1" fill="#70d940" d="M 91.5,27.5 C 93.5,27.5 95.5,27.5 97.5,27.5C 97.5,51.5 97.5,75.5 97.5,99.5C 97.5,99.8333 97.5,100.167 97.5,100.5C 93.4862,100.666 89.4862,100.499 85.5,100C 84.5777,95.8938 83.7444,91.7271 83,87.5C 82.3333,76.5 82.3333,65.5 83,54.5C 84.453,45.0078 87.2863,36.0078 91.5,27.5 Z"/></g>
<g><path style="opacity:0.974" fill="#6fd83f" d="M 150.5,38.5 C 147.169,41.9995 144.002,45.6662 141,49.5C 137.571,53.4385 133.737,56.7719 129.5,59.5C 128.292,53.5428 126.292,47.8761 123.5,42.5C 130.18,36.9976 137.846,34.8309 146.5,36C 147.984,36.6622 149.317,37.4955 150.5,38.5 Z"/></g>
<g><path style="opacity:1" fill="#56c125" d="M 150.5,38.5 C 155.28,45.3449 155.78,52.6783 152,60.5C 147.172,69.8326 140.006,76.4992 130.5,80.5C 130.768,82.099 130.434,83.4324 129.5,84.5C 130.725,76.1422 130.725,67.8089 129.5,59.5C 133.737,56.7719 137.571,53.4385 141,49.5C 144.002,45.6662 147.169,41.9995 150.5,38.5 Z"/></g>
<g><path style="opacity:1" fill="#57c226" d="M 67.5,51.5 C 65.8692,56.0243 64.8692,60.6909 64.5,65.5C 63.7321,66.2625 63.2321,67.2625 63,68.5C 59.2913,63.0597 55.1247,58.0597 50.5,53.5C 50.9528,52.5416 51.6195,51.7083 52.5,51C 57.622,48.8552 62.622,49.0218 67.5,51.5 Z"/></g>
<g><path style="opacity:0.961" fill="#70d840" d="M 50.5,53.5 C 55.1247,58.0597 59.2913,63.0597 63,68.5C 63.2321,67.2625 63.7321,66.2625 64.5,65.5C 64.0885,75.0071 65.0885,84.3404 67.5,93.5C 51.9953,87.4997 44.8287,76.1663 46,59.5C 46.5661,56.7713 48.0661,54.7713 50.5,53.5 Z"/></g>
<g><path style="opacity:0.974" fill="#ff9e21" d="M 124.5,99.5 C 128.514,99.3345 132.514,99.5012 136.5,100C 137.667,100.5 138.5,101.333 139,102.5C 139.667,109.833 139.667,117.167 139,124.5C 138.28,126.056 137.113,127.056 135.5,127.5C 123.345,126.505 111.011,126.171 98.5,126.5C 98.5,117.833 98.5,109.167 98.5,100.5C 107.251,100.803 115.918,100.47 124.5,99.5 Z"/></g>
<g><path style="opacity:0.978" fill="#fed843" d="M 70.5,100.5 C 79.4465,101.444 88.4465,101.778 97.5,101.5C 97.5,110.167 97.5,118.833 97.5,127.5C 86.8333,127.5 76.1667,127.5 65.5,127.5C 63.1432,127.663 60.8098,127.497 58.5,127C 57.3333,126.5 56.5,125.667 56,124.5C 55.3333,117.5 55.3333,110.5 56,103.5C 56.5,102.333 57.3333,101.5 58.5,101C 62.4862,100.501 66.4862,100.334 70.5,100.5 Z"/></g>
<g><path style="opacity:0.999" fill="#feb02d" d="M 97.5,100.5 C 97.8333,100.5 98.1667,100.5 98.5,100.5C 98.5,109.167 98.5,117.833 98.5,126.5C 111.011,126.171 123.345,126.505 135.5,127.5C 133.833,127.5 132.167,127.5 130.5,127.5C 119.5,127.5 108.5,127.5 97.5,127.5C 97.5,118.833 97.5,110.167 97.5,101.5C 97.5,101.167 97.5,100.833 97.5,100.5 Z"/></g>
<g><path style="opacity:0.963" fill="#fe9d22" d="M 65.5,127.5 C 76.1667,127.5 86.8333,127.5 97.5,127.5C 97.7693,131.931 97.436,136.265 96.5,140.5C 96.5,142.833 96.5,145.167 96.5,147.5C 95.209,147.737 94.209,147.404 93.5,146.5C 93.5,144.167 93.5,141.833 93.5,139.5C 92.5,139.5 91.5,139.5 90.5,139.5C 90.1936,142.385 90.5269,145.052 91.5,147.5C 92.6354,149.213 94.302,149.88 96.5,149.5C 97.4889,154.975 97.8222,160.642 97.5,166.5C 105.833,166.5 114.167,166.5 122.5,166.5C 114.507,167.166 106.34,167.5 98,167.5C 89.0699,167.64 80.2365,167.14 71.5,166C 68.7272,153.327 66.7272,140.494 65.5,127.5 Z"/></g>
<g><path style="opacity:1" fill="#fa8826" d="M 97.5,127.5 C 108.5,127.5 119.5,127.5 130.5,127.5C 128.75,139.835 126.916,152.168 125,164.5C 124.583,165.756 123.75,166.423 122.5,166.5C 114.167,166.5 105.833,166.5 97.5,166.5C 97.8222,160.642 97.4889,154.975 96.5,149.5C 97.1894,148.226 98.0228,148.226 99,149.5C 99.498,146.518 99.6646,143.518 99.5,140.5C 98.5,140.5 97.5,140.5 96.5,140.5C 97.436,136.265 97.7693,131.931 97.5,127.5 Z"/></g>
<g><path style="opacity:1" fill="#952734" d="M 86.5,136.5 C 87.5,136.5 88.5,136.5 89.5,136.5C 89.5,140.833 89.5,145.167 89.5,149.5C 88.5,149.5 87.5,149.5 86.5,149.5C 86.5,145.167 86.5,140.833 86.5,136.5 Z"/></g>
<g><path style="opacity:1" fill="#b74c2d" d="M 82.5,137.5 C 80.1667,137.5 77.8333,137.5 75.5,137.5C 75.5,141.5 75.5,145.5 75.5,149.5C 74.5151,145.366 74.1818,141.032 74.5,136.5C 77.3854,136.194 80.0521,136.527 82.5,137.5 Z"/></g>
<g><path style="opacity:1" fill="#8b1c35" d="M 82.5,137.5 C 83.1174,137.611 83.6174,137.944 84,138.5C 84.8236,141.882 84.657,145.216 83.5,148.5C 80.9159,149.393 78.2492,149.726 75.5,149.5C 75.5,145.5 75.5,141.5 75.5,137.5C 77.8333,137.5 80.1667,137.5 82.5,137.5 Z"/></g>
<g><path style="opacity:1" fill="#fb9922" d="M 77.5,139.5 C 79.288,139.215 80.9547,139.548 82.5,140.5C 81.6667,140.833 80.8333,141.167 80,141.5C 78.6244,141.316 77.7911,140.649 77.5,139.5 Z"/></g>
<g><path style="opacity:1" fill="#b2462f" d="M 93.5,146.5 C 92.6909,144.708 92.1909,142.708 92,140.5C 91.5034,142.81 91.3367,145.143 91.5,147.5C 90.5269,145.052 90.1936,142.385 90.5,139.5C 91.5,139.5 92.5,139.5 93.5,139.5C 93.5,141.833 93.5,144.167 93.5,146.5 Z"/></g>
<g><path style="opacity:1" fill="#901f35" d="M 93.5,146.5 C 94.209,147.404 95.209,147.737 96.5,147.5C 96.5,145.167 96.5,142.833 96.5,140.5C 97.5,140.5 98.5,140.5 99.5,140.5C 99.6646,143.518 99.498,146.518 99,149.5C 98.0228,148.226 97.1894,148.226 96.5,149.5C 94.302,149.88 92.6354,149.213 91.5,147.5C 91.3367,145.143 91.5034,142.81 92,140.5C 92.1909,142.708 92.6909,144.708 93.5,146.5 Z"/></g>
<g><path style="opacity:1" fill="#912035" d="M 100.5,140.5 C 104.437,140.207 108.27,140.54 112,141.5C 112.818,144.227 112.652,146.894 111.5,149.5C 109.873,140.256 108.873,140.256 108.5,149.5C 107.5,149.5 106.5,149.5 105.5,149.5C 104.833,140.167 104.167,140.167 103.5,149.5C 102.5,149.5 101.5,149.5 100.5,149.5C 100.5,146.5 100.5,143.5 100.5,140.5 Z"/></g>
<g><path style="opacity:1" fill="#8d1b35" d="M 117.5,139.5 C 123.483,140.6 123.816,143.1 118.5,147C 119.549,147.492 120.549,147.326 121.5,146.5C 122.711,147.274 122.711,148.107 121.5,149C 115.498,149.993 113.332,147.493 115,141.5C 115.995,140.934 116.828,140.267 117.5,139.5 Z"/></g>
<g><path style="opacity:1" fill="#dc6a2a" d="M 118.5,141.5 C 119.559,143.07 119.059,144.403 117,145.5C 116.7,143.934 117.2,142.601 118.5,141.5 Z"/></g>
<g><path style="opacity:1" fill="#fb9922" d="M 77.5,144.5 C 79.288,144.215 80.9547,144.548 82.5,145.5C 81.6667,145.833 80.8333,146.167 80,146.5C 78.6244,146.316 77.7911,145.649 77.5,144.5 Z"/></g>
</svg>
